<svg id="Слой_1" data-name="Слой 1" xmlns="http://www.w3.org/2000/svg" viewBox="0 0 187.09 93.53"><defs><style>.cls-1{fill:#353535;fill-rule:evenodd;}</style></defs><title>Omega</title><polygon class="cls-1" points="61.29 81.97 49.81 55.54 39.27 92.75 44.33 92.75 50.88 69.5 61.29 93.53 71.73 69.5 78.25 92.75 83.31 92.75 72.8 55.54 61.29 81.97 61.29 81.97 61.29 81.97"/><path class="cls-1" d="M520,430h-.08a19,19,0,1,0,0,38H520a18.15,18.15,0,0,0,13.62-5.81,18.93,18.93,0,0,0,0-26.43A18.17,18.17,0,0,0,520,430Zm9.79,29.29a12.9,12.9,0,0,1-9.85,4.09h0a12.91,12.91,0,0,1-9.87-4.15,14.57,14.57,0,0,1-3.83-10.19A14.75,14.75,0,0,1,510,438.82a12.77,12.77,0,0,1,9.87-4.2h0a12.78,12.78,0,0,1,9.85,4.17,14.77,14.77,0,0,1,3.83,10.27,14.52,14.52,0,0,1-3.83,10.25Z" transform="translate(-500.83 -374.47)"/><path class="cls-1" d="M588.21,421.4v-2.3h0a31.06,31.06,0,0,1-9.28-8.94c-4.15-7.95-5.24-15.86.32-23.81,10.38-11.72,17.63-7.17,24.43-.32,4.47,6.39,4.68,12.79,3,19.18-1.87,6.37-5.08,11-9.58,13.88v2.27h19.18l3.13-7.17h0c-.29-1.63-1-1.42-2.46-1.36h0l-2.35,3.26H609c1.66-2.41,3.32-4.84,4.95-7.28,2.27-5.89,3.16-12,1-18.83-4.57-14.82-23.25-18.78-35.15-12.92a21.44,21.44,0,0,0-12.41,20.2c.21,7.17,3.69,13.7,8.72,18.83h-4.31l-4-3.21h0a1.53,1.53,0,0,0-2.17,1.39h0l4.09,7.12h18.49Z" transform="translate(-500.83 -374.47)"/><path class="cls-1" d="M670.5,430.07l0-.05-17.39,37.21h5.46l4.57-9.79h14.74l4.57,9.79h5.48L670.5,430.07Zm0,22.77h-5.62l5.59-11.16,0,.05,5.59,11.1Z" transform="translate(-500.83 -374.47)"/><polygon class="cls-1" points="87.19 92.75 108.91 92.75 108.91 88.15 92.25 88.15 92.25 75.36 108.91 75.36 108.91 70.76 92.25 70.76 92.25 60.84 108.91 60.84 108.91 56.32 87.19 56.32 87.19 92.75 87.19 92.75 87.19 92.75"/><path class="cls-1" d="M632.81,452.57h13a11.47,11.47,0,0,1-3.93,7.79,12.39,12.39,0,0,1-8.51,3.05,12.83,12.83,0,0,1-9.87-4.15,14.48,14.48,0,0,1-3.85-10.19,14.66,14.66,0,0,1,3.85-10.25,12.69,12.69,0,0,1,9.87-4.2,12.87,12.87,0,0,1,5.48,1.07,14.62,14.62,0,0,1,4.41,3.18h0l3.83-3.05h0a21.78,21.78,0,0,0-6.21-4.33,18.06,18.06,0,0,0-7.46-1.47,18.95,18.95,0,0,0-19.13,19,19.26,19.26,0,0,0,4.2,12.15c3.53,4.57,8.53,6.85,14.93,6.85s11-2.33,14.21-7a22.37,22.37,0,0,0,3.72-13H634.63l-1.82,4.6Z" transform="translate(-500.83 -374.47)"/></svg>