<svg id="Слой_1" data-name="Слой 1" xmlns="http://www.w3.org/2000/svg" viewBox="0 0 189.92 34.72"><defs><style>.cls-1{fill:#d05047;}.cls-1,.cls-2{fill-rule:evenodd;}.cls-2{fill:#353535;}</style></defs><title>Swatch</title><path class="cls-1" d="M662.52,412.34l0,26.27H689V412.33Zm1.73,9.68v7h8.13v8h6.92v-8h8v-7h-8l0-8.15h-6.94V422Z" transform="translate(-499.12 -404.33)"/><path class="cls-2" d="M499.44,438.64H518a8.2,8.2,0,0,0,3.1-15.94,8.79,8.79,0,0,0-2.88-.45H506.75a3.32,3.32,0,0,1-1.1-.18,3.17,3.17,0,0,1,1.1-6.15h18.74v-4.44l-18.87,0h0a7.51,7.51,0,0,0-2.47,14.6,7.86,7.86,0,0,0,2.58.42H518a4.13,4.13,0,0,1,1.33.2,3.82,3.82,0,0,1,1.18,6.58,3.87,3.87,0,0,1-2.51.86H499.44v4.47Zm33.11-27.18h-4.29v18h0a9.1,9.1,0,0,0,16.27,5.89,9.19,9.19,0,0,0,15.92-2.68,10,10,0,0,0,.5-3.23h0l0-18h-4.41v18.24h0a4.9,4.9,0,1,1-9.77,0h0V411.47h-4.36v18.24h0a5,5,0,1,1-9.89,0c0-6.08,0-12.16,0-18.24Zm55,27.11V411.46H576.8a14.47,14.47,0,0,0-5,.83,13.64,13.64,0,0,0-2.62,24.33,14.87,14.87,0,0,0,7.34,2.21,13.6,13.6,0,0,0,5.28-.89h0l0-4.38h0a10.48,10.48,0,0,1-2.19.88,6.39,6.39,0,0,1-1.56.25,12.42,12.42,0,0,1-3.14-.19,9.17,9.17,0,0,1-3.24-1.38A9.67,9.67,0,0,1,573.86,416a10.5,10.5,0,0,1,3.49-.55h6v23.14Zm4.51-8.65a8.37,8.37,0,0,0,8.64,8.67h5.92v-3.87h-4.46a5.65,5.65,0,0,1-5.82-5.72h0V415.58h9.43v-4.11H596.4v-7.12h-4.28v25.6ZM630,416.81a13.88,13.88,0,0,0-13.37-5.72,14.51,14.51,0,0,0-4.68,1.42,13.87,13.87,0,0,0-6.52,7,14.74,14.74,0,0,0-1.09,4.67A13.84,13.84,0,0,0,618,439a12.35,12.35,0,0,0,12.44-7.37h0l-2.93-2.8h0a9.39,9.39,0,0,1-1.61,2.75,9.21,9.21,0,0,1-2.45,2,10.29,10.29,0,0,1-6.17,1.24,9.88,9.88,0,0,1-5.68-2.66,10,10,0,0,1-1.92-2.53,9.69,9.69,0,0,1-1-6.22,10.06,10.06,0,0,1,8.73-8.28,10.38,10.38,0,0,1,9.16,4h0l3.42-2.33ZM656.75,423a12.13,12.13,0,0,0-.82-4.46A11.71,11.71,0,0,0,637,414.34h0v-10h-4.45v34.21H637V423.21h0a7.72,7.72,0,1,1,15.43,0h0v15.34l4.32,0V423Z" transform="translate(-499.12 -404.33)"/></svg>