<svg id="Слой_1" data-name="Слой 1" xmlns="http://www.w3.org/2000/svg" viewBox="0 0 872.59 393.92"><defs><style>.cls-1{fill:#373737;}</style></defs><title>Zenith</title><polygon class="cls-1" points="124.37 233.13 124.37 216.9 6.6 216.9 6.6 234.36 89.77 234.36 0 304.86 0 321.61 125.79 321.61 125.79 304.15 34.15 304.15 124.37 233.13"/><polygon class="cls-1" points="197.71 276.27 276.94 276.27 276.94 258.81 197.71 258.81 197.71 234.36 279.52 234.36 279.52 216.84 173.59 216.84 173.59 321.61 281.4 321.61 281.4 304.15 197.71 304.15 197.71 276.27"/><polygon class="cls-1" points="435.32 293.87 353.45 216.9 327.58 216.9 327.58 321.61 351.7 321.61 351.7 244.58 433.58 321.61 459.45 321.61 459.45 216.9 435.32 216.9 435.32 293.87"/><rect class="cls-1" x="516.49" y="216.9" width="24.12" height="104.71"/><polygon class="cls-1" points="580.84 234.36 630.64 234.36 630.64 321.61 654.76 321.61 654.76 234.36 704.63 234.36 704.63 216.9 580.84 216.9 580.84 234.36"/><polygon class="cls-1" points="848.4 216.9 848.4 258.81 767.88 258.81 767.88 216.9 743.76 216.9 743.76 321.61 767.88 321.61 767.88 276.27 848.4 276.27 848.4 321.61 872.59 321.61 872.59 216.9 848.4 216.9"/><polygon class="cls-1" points="124.37 233.13 124.37 216.9 6.6 216.9 6.6 234.36 89.77 234.36 0 304.86 0 321.61 125.79 321.61 125.79 304.15 34.15 304.15 124.37 233.13"/><polygon class="cls-1" points="197.71 276.27 276.94 276.27 276.94 258.81 197.71 258.81 197.71 234.36 279.52 234.36 279.52 216.84 173.59 216.84 173.59 321.61 281.4 321.61 281.4 304.15 197.71 304.15 197.71 276.27"/><polygon class="cls-1" points="435.32 293.87 353.45 216.9 327.58 216.9 327.58 321.61 351.7 321.61 351.7 244.58 433.58 321.61 459.45 321.61 459.45 216.9 435.32 216.9 435.32 293.87"/><rect class="cls-1" x="516.49" y="216.9" width="24.12" height="104.71"/><polygon class="cls-1" points="580.84 234.36 630.64 234.36 630.64 321.61 654.76 321.61 654.76 234.36 704.63 234.36 704.63 216.9 580.84 216.9 580.84 234.36"/><polygon class="cls-1" points="848.4 216.9 848.4 258.81 767.88 258.81 767.88 216.9 743.76 216.9 743.76 321.61 767.88 321.61 767.88 276.27 848.4 276.27 848.4 321.61 872.59 321.61 872.59 216.9 848.4 216.9"/><path class="cls-1" d="M626.41,422.81H562.31l-19.79-61a2.62,2.62,0,0,0-5,0l-19.79,61H453.59a2.62,2.62,0,0,0-1.55,4.72l51.87,37.71-19.79,61a2.6,2.6,0,0,0,4,2.91L540,491.43l51.87,37.71a2.6,2.6,0,0,0,4-2.91l-19.79-61L628,427.6a2.66,2.66,0,0,0-1.55-4.79m-66,37.38L573,499l-33-24-33,24,12.61-38.8-33-24h40.81l12.61-38.8,12.61,38.8h40.81Z" transform="translate(-103.71 -360.03)"/><polygon class="cls-1" points="102.64 393.66 98.5 393.66 92.16 374.06 85.82 393.66 81.68 393.66 73.47 365.72 78.52 365.72 83.95 385.64 90.22 365.72 94.04 365.72 100.31 385.64 105.74 365.72 110.79 365.72 102.64 393.66"/><path class="cls-1" d="M237.26,753.69l-2.13-5.63H222.77l-2.13,5.63h-5L227,725.75h3.82l11.45,27.94ZM229.11,732l-4.85,12.35h9.64Z" transform="translate(-103.71 -360.03)"/><polygon class="cls-1" points="151.92 369.47 151.92 393.66 147.13 393.66 147.13 369.47 138.53 369.47 138.53 365.72 160.52 365.72 160.52 369.47 151.92 369.47"/><path class="cls-1" d="M279.69,753.88a12,12,0,0,1-8.21-3c-3.1-2.72-3-5.82-3-11.19s-.06-8.47,3-11.19a12,12,0,0,1,8.21-3c5.76,0,10,3,11.12,8.6H286a6.06,6.06,0,0,0-6.34-4.79,6.65,6.65,0,0,0-4.59,1.68c-1.55,1.49-1.88,3.1-1.88,8.73s.39,7.24,1.88,8.73a6.47,6.47,0,0,0,4.59,1.68,6.18,6.18,0,0,0,6.4-4.79h4.79c-1,5.43-5.43,8.47-11.12,8.47" transform="translate(-103.71 -360.03)"/><polygon class="cls-1" points="211.81 393.66 211.81 381.43 199.13 381.43 199.13 393.66 194.35 393.66 194.35 365.72 199.13 365.72 199.13 377.62 211.81 377.62 211.81 365.72 216.53 365.72 216.53 393.66 211.81 393.66"/><polygon class="cls-1" points="259.86 393.66 259.86 374.97 252.62 388.55 249.13 388.55 241.75 374.97 241.75 393.66 236.97 393.66 236.97 365.72 241.75 365.72 250.87 383.05 259.86 365.72 264.58 365.72 264.58 393.66 259.86 393.66"/><path class="cls-1" d="M395.26,753.69l-2.13-5.63H380.77l-2.13,5.63h-5L385,725.75h3.82l11.45,27.94ZM387,732l-4.85,12.35h9.64Z" transform="translate(-103.71 -360.03)"/><polygon class="cls-1" points="321.11 393.66 306.69 374 306.69 393.66 301.9 393.66 301.9 365.72 306.23 365.72 320.72 385.31 320.72 365.72 325.44 365.72 325.44 393.66 321.11 393.66"/><path class="cls-1" d="M448.94,753.88c-6.4,0-11.19-3.88-11.19-9.64v-18.5h4.72v18.3c0,3.75,2.59,6,6.47,6s6.53-2.33,6.53-6v-18.3h4.72v18.5c0,5.76-4.92,9.64-11.25,9.64" transform="translate(-103.71 -360.03)"/><polygon class="cls-1" points="369.74 369.47 369.74 378.01 382.74 378.01 382.74 381.82 369.74 381.82 369.74 393.66 365.02 393.66 365.02 365.72 385.01 365.72 385.01 369.47 369.74 369.47"/><path class="cls-1" d="M510.64,753.69l-2.13-5.63H496.15L494,753.69h-5l11.45-27.94h3.82l11.45,27.94ZM502.42,732l-4.85,12.35h9.64Z" transform="translate(-103.71 -360.03)"/><path class="cls-1" d="M530.69,753.88a12,12,0,0,1-8.21-3c-3.1-2.72-3-5.82-3-11.19s-.06-8.47,3-11.19a12,12,0,0,1,8.21-3c5.76,0,10,3,11.12,8.6H537a6.06,6.06,0,0,0-6.34-4.79,6.65,6.65,0,0,0-4.59,1.68c-1.55,1.49-1.88,3.1-1.88,8.73s.39,7.24,1.88,8.73a6.47,6.47,0,0,0,4.59,1.68,6.06,6.06,0,0,0,6.34-4.79h4.79c-1,5.43-5.43,8.47-11.06,8.47" transform="translate(-103.71 -360.03)"/><polygon class="cls-1" points="454.99 369.47 454.99 393.66 450.26 393.66 450.26 369.47 441.66 369.47 441.66 365.72 463.59 365.72 463.59 369.47 454.99 369.47"/><path class="cls-1" d="M584.3,753.88c-6.34,0-11.19-3.88-11.19-9.64v-18.5h4.72v18.3c0,3.75,2.52,6,6.47,6s6.53-2.33,6.53-6v-18.3h4.72v18.5c0,5.76-4.85,9.64-11.25,9.64" transform="translate(-103.71 -360.03)"/><path class="cls-1" d="M621.36,753.69l-6.6-11.77h-6v11.77h-4.72V725.75h12.09c6,0,9.7,3.43,9.7,8.15,0,4-2.72,6.53-6.21,7.44l7.24,12.35Zm-5.5-24.19h-7v8.73h7c3.17,0,5.3-1.62,5.3-4.33s-2.13-4.4-5.3-4.4" transform="translate(-103.71 -360.03)"/><polygon class="cls-1" points="530.07 393.66 530.07 365.72 550.06 365.72 550.06 369.47 534.79 369.47 534.79 377.68 547.79 377.68 547.79 381.43 534.79 381.43 534.79 389.84 550.06 389.84 550.06 393.66 530.07 393.66"/><path class="cls-1" d="M680.86,753.88c-4.72,0-8.08-1-11.06-3.69l3.17-2.78c2.26,2.07,4.79,2.65,8,2.65,4.07,0,6.47-1.55,6.47-4.27a3.59,3.59,0,0,0-1.23-2.91,5.55,5.55,0,0,0-3.43-1.16l-3.69-.45a11.39,11.39,0,0,1-6-2.26,6.46,6.46,0,0,1-2.26-5.3c0-4.85,3.95-8.21,10.48-8.21,4.14,0,7,.91,9.7,3.17l-3,2.65c-1.94-1.68-4.14-2.13-6.79-2.13-3.69,0-5.69,1.88-5.69,4.33a3.07,3.07,0,0,0,1.16,2.59,7.19,7.19,0,0,0,3.49,1.29l3.56.45c2.91.39,4.53,1,5.82,2.07a7.09,7.09,0,0,1,2.52,5.76c0,5.17-4.72,8.21-11.25,8.21" transform="translate(-103.71 -360.03)"/><rect class="cls-1" x="595.65" y="365.72" width="4.72" height="27.94"/><polygon class="cls-1" points="628.64 393.66 614.15 374 614.15 393.66 609.43 393.66 609.43 365.72 613.76 365.72 628.25 385.31 628.25 365.72 632.97 365.72 632.97 393.66 628.64 393.66"/><path class="cls-1" d="M755.82,753.88a12,12,0,0,1-8.21-3c-3.1-2.72-3-5.82-3-11.19s-.06-8.47,3-11.19a12,12,0,0,1,8.21-3c5.76,0,10.09,3,11.12,8.6h-4.79a6.06,6.06,0,0,0-6.34-4.79,6.65,6.65,0,0,0-4.59,1.68c-1.49,1.49-1.88,3.1-1.88,8.73s.39,7.24,1.88,8.73a6.47,6.47,0,0,0,4.59,1.68,6.18,6.18,0,0,0,6.4-4.79H767c-1.1,5.43-5.56,8.47-11.19,8.47" transform="translate(-103.71 -360.03)"/><polygon class="cls-1" points="670.48 393.66 670.48 365.72 690.47 365.72 690.47 369.47 675.2 369.47 675.2 377.68 688.2 377.68 688.2 381.43 675.2 381.43 675.2 389.84 690.47 389.84 690.47 393.66 670.48 393.66"/><polygon class="cls-1" points="716.27 393.66 716.27 370.05 710.19 374.84 710.19 370.38 716.27 365.72 720.73 365.72 720.73 393.66 716.27 393.66"/><path class="cls-1" d="M844.81,753.88c-5.37,0-9.57-3-9.57-8.15,0-3.36,2.13-5.37,4.27-6.53a6.71,6.71,0,0,1-3.75-6c0-4.66,4-7.7,9.12-7.7s9.12,3,9.12,7.7a6.78,6.78,0,0,1-3.75,6,7.35,7.35,0,0,1,4.33,6.53c-.06,5.11-4.4,8.15-9.77,8.15m0-12.87a4.68,4.68,0,1,0,5.11,4.66c.06-2.59-2.2-4.66-5.11-4.66m0-12a4.36,4.36,0,0,0-4.66,4.27c0,2.46,1.88,4.27,4.66,4.27s4.66-1.75,4.66-4.27a4.33,4.33,0,0,0-4.66-4.27" transform="translate(-103.71 -360.03)"/><path class="cls-1" d="M869.19,753.88c-5.37,0-9.25-3.17-9.25-8.34,0-2.26,1-4.46,2.33-6.86l7.11-12.93h4.79l-6.73,12a8.29,8.29,0,0,1,11,7.63c-.06,5.17-3.88,8.54-9.25,8.54m-.06-13.26a4.85,4.85,0,0,0,0,9.7,4.85,4.85,0,0,0,0-9.7" transform="translate(-103.71 -360.03)"/><path class="cls-1" d="M900.11,751.75a9.79,9.79,0,0,1-6.6,2.2,10,10,0,0,1-6.66-2.13,7.6,7.6,0,0,1-2.39-5.3h4.46c.32,2.46,1.75,3.88,4.59,3.88a4.77,4.77,0,0,0,3.23-1.1c1.29-1.16,1.49-3,1.49-4.92,0-3.3-1-5.82-4.59-5.82-2.52,0-3.95,1.16-4.4,2.52h-4.07V725.81H902v3.56H889.24v7.37a7.71,7.71,0,0,1,5.17-1.62,8.16,8.16,0,0,1,5.63,1.81c2.39,2.13,2.72,4.85,2.72,7.44,0,2.91-.32,5.3-2.65,7.37" transform="translate(-103.71 -360.03)"/></svg>